<?xml version="1.0" encoding="UTF-8" standalone="no"?>
<svg
   xmlns:osb="http://www.openswatchbook.org/uri/2009/osb"
   xmlns:dc="http://purl.org/dc/elements/1.1/"
   xmlns:cc="http://creativecommons.org/ns#"
   xmlns:rdf="http://www.w3.org/1999/02/22-rdf-syntax-ns#"
   xmlns:svg="http://www.w3.org/2000/svg"
   xmlns="http://www.w3.org/2000/svg"
   xmlns:sodipodi="http://sodipodi.sourceforge.net/DTD/sodipodi-0.dtd"
   xmlns:inkscape="http://www.inkscape.org/namespaces/inkscape"
   width="210mm"
   height="297mm"
   viewBox="0 0 210 297"
   version="1.1"
   id="svg950"
   inkscape:version="1.0.2-2 (e86c870879, 2021-01-15)"
   sodipodi:docname="loot-perk-ap.svg">
  <defs
     id="defs944">
    <linearGradient
       id="linearGradient1633"
       osb:paint="solid">
      <stop
         style="stop-color:#000000;stop-opacity:1;"
         offset="0"
         id="stop1631" />
    </linearGradient>
    <linearGradient
       id="a">
      <stop
         offset="0"
         stop-color="#4d4d4d"
         id="stop1547" />
      <stop
         offset="1"
         stop-color="#141414"
         id="stop1549" />
    </linearGradient>
    <linearGradient
       id="b">
      <stop
         offset="0"
         stop-color="#343434"
         id="stop1552" />
      <stop
         offset="1"
         stop-color="#141414"
         id="stop1554" />
    </linearGradient>
  </defs>
  <sodipodi:namedview
     id="base"
     pagecolor="#ffffff"
     bordercolor="#666666"
     borderopacity="1.0"
     inkscape:pageopacity="0.0"
     inkscape:pageshadow="2"
     inkscape:zoom="2.5707147"
     inkscape:cx="261.19888"
     inkscape:cy="337.1631"
     inkscape:document-units="mm"
     inkscape:current-layer="g1595"
     inkscape:document-rotation="0"
     showgrid="false"
     inkscape:window-width="1366"
     inkscape:window-height="697"
     inkscape:window-x="-8"
     inkscape:window-y="-8"
     inkscape:window-maximized="1" />
  <metadata
     id="metadata947">
    <rdf:RDF>
      <cc:Work
         rdf:about="">
        <dc:format>image/svg+xml</dc:format>
        <dc:type
           rdf:resource="http://purl.org/dc/dcmitype/StillImage" />
        <dc:title />
      </cc:Work>
    </rdf:RDF>
  </metadata>
  <g
     inkscape:label="Layer 1"
     inkscape:groupmode="layer"
     id="layer1">
    <g
       id="g1595"
       transform="matrix(0.26458333,0,0,0.26458333,79.173357,70.783313)"
       style="fill:#000000;fill-opacity:1">
      <g
         fill="#ffffff"
         id="g1573"
         style="fill:#ffffff;fill-opacity:1"
         transform="translate(-147.75948,0.21540211)">
        <path
           d="m 76.5,43.654 c 0,0 -5.625,-2.564 -6.75,-8.756 C 68.625,29.274 74,20 72,14 70,8 68,6 64,5.972 60,6 58,8 56,14 c -2,6 3.375,15.274 2.25,20.898 -1.125,6.192 -6.75,8.756 -6.75,8.756 5.554,0.006 19.375,-0.065 25,0 z M 68.625,17.467 c 0,2.25 -3.665,15.157 -4.625,15.157 -0.96,0 -4.625,-12.908 -4.625,-15.157 0,-2.25 2.375,-6.98 4.625,-6.98 2.25,0 4.625,4.73 4.625,6.98 z"
           stroke="#ffffff"
           stroke-width="1.68736"
           id="path1561"
           style="fill:#ffffff;fill-opacity:1" />
        <g
           transform="matrix(0.84368,0,0,0.84368,9.485,21.868)"
           id="g1571"
           style="fill:#ffffff;fill-opacity:1">
          <path
             id="circle1567"
             style="fill:#ffffff;fill-opacity:1"
             d="m 33.809001,64 a 7.7690001,7.7690001 0 0 1 -7.769,7.769 7.7690001,7.7690001 0 0 1 -7.769,-7.769 7.7690001,7.7690001 0 0 1 7.769,-7.769 7.7690001,7.7690001 0 0 1 7.769,7.769 z" />
          <path
             id="circle1569"
             style="fill:#ffffff;fill-opacity:1"
             d="M 110.961,64 A 7.7690001,7.7690001 0 0 1 103.192,71.769 7.7690001,7.7690001 0 0 1 95.423001,64 7.7690001,7.7690001 0 0 1 103.192,56.231 7.7690001,7.7690001 0 0 1 110.961,64 Z" />
        </g>
      </g>
      <path
         id="path1563-7"
         style="fill:#ffffff;fill-opacity:1"
         d="m -83.79548,40.606402 c -19.41691,-0.001 -35.15821,15.73935 -35.15821,35.15625 0.0136,5.120646 1.14507,10.174996 3.31641,14.812496 1.35978,7.81169 11.66072,15.914512 22.39258,19.013672 3.075,0.87013 6.2535,1.31703 9.44922,1.32813 3.193371,-0.0117 6.370611,-0.45863 9.443361,-1.32813 12.27705,-3.28962 20.73552,-12.823612 22.39258,-19.007812 2.17322,-4.6391 3.30664,-9.69742 3.32031,-14.820306 -5.5e-4,-19.41573 -15.74052,-35.1543 -35.156251,-35.1543 z m -9.33008,8.47266 -0.3418,2.9082 a 4.5659394,4.5659394 0 0 1 2.52149,3.33008 l 4.1875,-2.12891 -4.14063,2.49023 a 4.5659394,4.5659394 0 0 1 0.01953,0.42188 4.5659394,4.5659394 0 0 1 -0.77539,2.54687 l 5.1211,2.36133 -5.3125,-2.09961 a 4.5659394,4.5659394 0 0 1 -1.86133,1.41407 l 1.48047,5.59375 -1.57422,-5.5586 a 4.5659394,4.5659394 0 0 1 -1.64258,0.30664 4.5659394,4.5659394 0 0 1 -1.03516,-0.11719 l -2.81054,3.3711 2.36914,-3.5 a 4.5659394,4.5659394 0 0 1 -3.04102,-3.66406 l -3.46289,-0.66797 3.41406,0.01 a 4.5659394,4.5659394 0 0 1 1.91797,-3.71484 l -1.40429,-2.10547 1.76367,1.87305 a 4.5659394,4.5659394 0 0 1 2.28906,-0.61524 4.5659394,4.5659394 0 0 1 1.81055,0.375 z m 13.521481,9.875 2.71485,6.81835 a 6.7091348,6.7091348 0 0 1 2.41015,-0.44726 6.7091348,6.7091348 0 0 1 1.03125,0.0801 l 3.93555,-6.24219 -2.06836,6.82226 a 6.7091348,6.7091348 0 0 1 2.54102,2.1211 l 7.42578,-3.7168 -6.72656,4.93946 a 6.7091348,6.7091348 0 0 1 0.57031,2.70507 6.7091348,6.7091348 0 0 1 -0.0039,0.22071 l 8.00586,0.98632 -8.07617,-0.21484 a 6.7091348,6.7091348 0 0 1 -1.51953,3.347656 l 4.65625,6.00781 -5.49024,-5.18359 a 6.7091348,6.7091348 0 0 1 -3.83007,1.52929 l 0.11914,7.12891 -0.91016,-7.12305 a 6.7091348,6.7091348 0 0 1 -3.35742,-1.10156 l -5.484381,6.38477 5.343751,-6.48047 a 6.7091348,6.7091348 0 0 1 -2.40429,-3.042966 l -8.095711,0.23047 7.6836,-1.84766 a 6.7091348,6.7091348 0 0 1 -0.05469,-0.8418 6.7091348,6.7091348 0 0 1 0.302731,-1.98633 l -6.708981,-4.51757 7.748051,2.48047 a 6.7091348,6.7091348 0 0 1 2.83203,-2.1875 z m -21.345701,18.828116 1.17969,2.80664 a 2.8886554,2.8886554 0 0 1 0.9707,-0.16797 2.8886554,2.8886554 0 0 1 2.60742,1.64453 l 2.01954,-1.18164 -1.8711,1.5625 a 2.8886554,2.8886554 0 0 1 0.13281,0.86328 2.8886554,2.8886554 0 0 1 -0.91211,2.10352 l 2.78907,2.55664 -3.43946,-2.0957 a 2.8886554,2.8886554 0 0 1 -1.32617,0.32422 2.8886554,2.8886554 0 0 1 -0.53515,-0.0508 l -1.70118,4.66211 1.19141,-4.80859 a 2.8886554,2.8886554 0 0 1 -1.45508,-1.24414 l -3.54492,-1.01953 3.17773,-0.0937 a 2.8886554,2.8886554 0 0 1 -0.0215,-0.33399 2.8886554,2.8886554 0 0 1 1.57813,-2.57422 z" />
    </g>
  </g>
</svg>
